ISO-10303-21;
HEADER;
/* Generated by software containing ST-Developer
 * from STEP Tools, Inc. (www.steptools.com) 
 */
/* OPTION: using custom renumber hook */

FILE_DESCRIPTION(
/* description */ ('STEP AP242',
'CAx-IF Rec.Pracs.---Representation and Presentation of Product Manufa
cturing Information (PMI)---4.0---2014-10-13',
'CAx-IF Rec.Pracs.---3D Tessellated Geometry---0.4---2014-09-14','2;1'),

/* implementation_level */ '2;1');

FILE_NAME(
/* name */ '6542d784478feb7564ac8e21',
/* time_stamp */ '2023-11-01T22:56:05Z',
/* author */ (''),
/* organization */ (''),
/* preprocessor_version */ 'ST-DEVELOPER v19.4',
/* originating_system */ '  ',
/* authorisation */ '  ');

FILE_SCHEMA (('AP242_MANAGED_MODEL_BASED_3D_ENGINEERING_MIM_LF { 1 0 10303 442 1 1 4 }'));
ENDSEC;

DATA;
#10=SHAPE_REPRESENTATION_RELATIONSHIP('','',#100,#11);
#11=ADVANCED_BREP_SHAPE_REPRESENTATION('',(#98),#169);
#12=CONICAL_SURFACE('',#115,0.001125,0.785398163397449);
#13=CYLINDRICAL_SURFACE('',#105,0.00255);
#14=CYLINDRICAL_SURFACE('',#109,0.00175);
#15=CYLINDRICAL_SURFACE('',#113,0.001025);
#16=ORIENTED_EDGE('',*,*,#30,.T.);
#17=ORIENTED_EDGE('',*,*,#31,.T.);
#18=ORIENTED_EDGE('',*,*,#32,.T.);
#19=ORIENTED_EDGE('',*,*,#31,.F.);
#20=ORIENTED_EDGE('',*,*,#33,.T.);
#21=ORIENTED_EDGE('',*,*,#32,.F.);
#22=ORIENTED_EDGE('',*,*,#34,.T.);
#23=ORIENTED_EDGE('',*,*,#33,.F.);
#24=ORIENTED_EDGE('',*,*,#35,.T.);
#25=ORIENTED_EDGE('',*,*,#34,.F.);
#26=ORIENTED_EDGE('',*,*,#36,.T.);
#27=ORIENTED_EDGE('',*,*,#35,.F.);
#28=ORIENTED_EDGE('',*,*,#36,.F.);
#29=ORIENTED_EDGE('',*,*,#30,.F.);
#30=EDGE_CURVE('',#37,#37,#44,.F.);
#31=EDGE_CURVE('',#38,#38,#45,.T.);
#32=EDGE_CURVE('',#39,#39,#46,.T.);
#33=EDGE_CURVE('',#40,#40,#47,.T.);
#34=EDGE_CURVE('',#41,#41,#48,.T.);
#35=EDGE_CURVE('',#42,#42,#49,.T.);
#36=EDGE_CURVE('',#43,#43,#50,.T.);
#37=VERTEX_POINT('',#149);
#38=VERTEX_POINT('',#151);
#39=VERTEX_POINT('',#154);
#40=VERTEX_POINT('',#157);
#41=VERTEX_POINT('',#160);
#42=VERTEX_POINT('',#163);
#43=VERTEX_POINT('',#166);
#44=CIRCLE('',#103,0.001125);
#45=CIRCLE('',#104,0.00255);
#46=CIRCLE('',#106,0.00255);
#47=CIRCLE('',#108,0.00175);
#48=CIRCLE('',#110,0.00175);
#49=CIRCLE('',#112,0.001025);
#50=CIRCLE('',#114,0.001025);
#51=EDGE_LOOP('',(#16));
#52=EDGE_LOOP('',(#17));
#53=EDGE_LOOP('',(#18));
#54=EDGE_LOOP('',(#19));
#55=EDGE_LOOP('',(#20));
#56=EDGE_LOOP('',(#21));
#57=EDGE_LOOP('',(#22));
#58=EDGE_LOOP('',(#23));
#59=EDGE_LOOP('',(#24));
#60=EDGE_LOOP('',(#25));
#61=EDGE_LOOP('',(#26));
#62=EDGE_LOOP('',(#27));
#63=EDGE_LOOP('',(#28));
#64=EDGE_LOOP('',(#29));
#65=FACE_BOUND('',#51,.T.);
#66=FACE_BOUND('',#52,.T.);
#67=FACE_BOUND('',#53,.T.);
#68=FACE_BOUND('',#54,.T.);
#69=FACE_BOUND('',#55,.T.);
#70=FACE_BOUND('',#56,.T.);
#71=FACE_BOUND('',#57,.T.);
#72=FACE_BOUND('',#58,.T.);
#73=FACE_BOUND('',#59,.T.);
#74=FACE_BOUND('',#60,.T.);
#75=FACE_BOUND('',#61,.T.);
#76=FACE_BOUND('',#62,.T.);
#77=FACE_BOUND('',#63,.T.);
#78=FACE_BOUND('',#64,.T.);
#79=PLANE('',#102);
#80=PLANE('',#107);
#81=PLANE('',#111);
#82=ADVANCED_FACE('',(#65,#66),#79,.T.);
#83=ADVANCED_FACE('',(#67,#68),#13,.T.);
#84=ADVANCED_FACE('',(#69,#70),#80,.T.);
#85=ADVANCED_FACE('',(#71,#72),#14,.T.);
#86=ADVANCED_FACE('',(#73,#74),#81,.T.);
#87=ADVANCED_FACE('',(#75,#76),#15,.F.);
#88=ADVANCED_FACE('',(#77,#78),#12,.F.);
#89=CLOSED_SHELL('',(#82,#83,#84,#85,#86,#87,#88));
#90=STYLED_ITEM('',(#91),#98);
#91=PRESENTATION_STYLE_ASSIGNMENT((#92));
#92=SURFACE_STYLE_USAGE(.BOTH.,#93);
#93=SURFACE_SIDE_STYLE('',(#94));
#94=SURFACE_STYLE_FILL_AREA(#95);
#95=FILL_AREA_STYLE('',(#96));
#96=FILL_AREA_STYLE_COLOUR('',#97);
#97=COLOUR_RGB('',0.615686274509804,0.811764705882353,0.929411764705882);
#98=MANIFOLD_SOLID_BREP('PCB_SMT_Standoff',#89);
#99=SHAPE_DEFINITION_REPRESENTATION(#174,#100);
#100=SHAPE_REPRESENTATION('PCB_SMT_Standoff',(#101),#169);
#101=AXIS2_PLACEMENT_3D('',#146,#116,#117);
#102=AXIS2_PLACEMENT_3D('',#147,#118,#119);
#103=AXIS2_PLACEMENT_3D('',#148,#120,#121);
#104=AXIS2_PLACEMENT_3D('',#150,#122,#123);
#105=AXIS2_PLACEMENT_3D('',#152,#124,#125);
#106=AXIS2_PLACEMENT_3D('',#153,#126,#127);
#107=AXIS2_PLACEMENT_3D('',#155,#128,#129);
#108=AXIS2_PLACEMENT_3D('',#156,#130,#131);
#109=AXIS2_PLACEMENT_3D('',#158,#132,#133);
#110=AXIS2_PLACEMENT_3D('',#159,#134,#135);
#111=AXIS2_PLACEMENT_3D('',#161,#136,#137);
#112=AXIS2_PLACEMENT_3D('',#162,#138,#139);
#113=AXIS2_PLACEMENT_3D('',#164,#140,#141);
#114=AXIS2_PLACEMENT_3D('',#165,#142,#143);
#115=AXIS2_PLACEMENT_3D('',#167,#144,#145);
#116=DIRECTION('',(0.,0.,1.));
#117=DIRECTION('',(1.,0.,0.));
#118=DIRECTION('',(0.,1.,0.));
#119=DIRECTION('',(0.,0.,1.));
#120=DIRECTION('',(0.,1.,0.));
#121=DIRECTION('',(0.,0.,1.));
#122=DIRECTION('',(0.,1.,0.));
#123=DIRECTION('',(0.,0.,1.));
#124=DIRECTION('',(0.,1.,0.));
#125=DIRECTION('',(0.,0.,1.));
#126=DIRECTION('',(0.,1.,0.));
#127=DIRECTION('',(0.,0.,1.));
#128=DIRECTION('',(0.,-1.,0.));
#129=DIRECTION('',(0.,0.,-1.));
#130=DIRECTION('',(0.,1.,0.));
#131=DIRECTION('',(0.,0.,1.));
#132=DIRECTION('',(0.,1.,0.));
#133=DIRECTION('',(0.,0.,1.));
#134=DIRECTION('',(0.,1.,0.));
#135=DIRECTION('',(0.,0.,1.));
#136=DIRECTION('',(0.,-1.,0.));
#137=DIRECTION('',(0.,0.,-1.));
#138=DIRECTION('',(0.,1.,0.));
#139=DIRECTION('',(0.,0.,1.));
#140=DIRECTION('',(0.,1.,0.));
#141=DIRECTION('',(0.,0.,1.));
#142=DIRECTION('',(0.,1.,0.));
#143=DIRECTION('',(0.,0.,1.));
#144=DIRECTION('',(0.,1.,0.));
#145=DIRECTION('',(0.,0.,1.));
#146=CARTESIAN_POINT('',(0.,0.,0.));
#147=CARTESIAN_POINT('',(-0.001275,0.0024,0.));
#148=CARTESIAN_POINT('',(0.,0.0024,0.));
#149=CARTESIAN_POINT('',(0.,0.0024,0.001125));
#150=CARTESIAN_POINT('',(0.,0.0024,0.));
#151=CARTESIAN_POINT('',(0.,0.0024,0.00255));
#152=CARTESIAN_POINT('',(0.,0.000350315918276871,0.));
#153=CARTESIAN_POINT('',(0.,0.0014,0.));
#154=CARTESIAN_POINT('',(0.,0.0014,0.00255));
#155=CARTESIAN_POINT('',(-0.00215,0.0014,0.));
#156=CARTESIAN_POINT('',(0.,0.0014,0.));
#157=CARTESIAN_POINT('',(0.,0.0014,0.00175));
#158=CARTESIAN_POINT('',(0.,0.000350315918276871,0.));
#159=CARTESIAN_POINT('',(0.,0.,0.));
#160=CARTESIAN_POINT('',(0.,0.,0.00175));
#161=CARTESIAN_POINT('',(-0.000875,0.,0.));
#162=CARTESIAN_POINT('',(0.,0.,0.));
#163=CARTESIAN_POINT('',(0.,0.,0.001025));
#164=CARTESIAN_POINT('',(0.,0.,0.));
#165=CARTESIAN_POINT('',(0.,0.0023,0.));
#166=CARTESIAN_POINT('',(0.,0.0023,0.001025));
#167=CARTESIAN_POINT('',(0.,0.0024,0.));
#168=MECHANICAL_DESIGN_GEOMETRIC_PRESENTATION_REPRESENTATION('',(#90),#169);
#169=(
GEOMETRIC_REPRESENTATION_CONTEXT(3)
GLOBAL_UNCERTAINTY_ASSIGNED_CONTEXT((#170))
GLOBAL_UNIT_ASSIGNED_CONTEXT((#173,#172,#171))
REPRESENTATION_CONTEXT('PCB_SMT_Standoff','TOP_LEVEL_ASSEMBLY_PART')
);
#170=UNCERTAINTY_MEASURE_WITH_UNIT(LENGTH_MEASURE(5.E-6),#173,
'DISTANCE_ACCURACY_VALUE','Maximum Tolerance applied to model');
#171=(
NAMED_UNIT(*)
SI_UNIT($,.STERADIAN.)
SOLID_ANGLE_UNIT()
);
#172=(
NAMED_UNIT(*)
PLANE_ANGLE_UNIT()
SI_UNIT($,.RADIAN.)
);
#173=(
LENGTH_UNIT()
NAMED_UNIT(*)
SI_UNIT($,.METRE.)
);
#174=PRODUCT_DEFINITION_SHAPE('','',#175);
#175=PRODUCT_DEFINITION('','',#177,#176);
#176=PRODUCT_DEFINITION_CONTEXT('',#183,'design');
#177=PRODUCT_DEFINITION_FORMATION_WITH_SPECIFIED_SOURCE('','',#179,
 .NOT_KNOWN.);
#178=PRODUCT_RELATED_PRODUCT_CATEGORY('','',(#179));
#179=PRODUCT('PCB_SMT_Standoff','PCB_SMT_Standoff','PCB_SMT_Standoff',(#181));
#180=PRODUCT_CATEGORY('','');
#181=PRODUCT_CONTEXT('',#183,'mechanical');
#182=APPLICATION_PROTOCOL_DEFINITION('international standard',
'ap242_managed_model_based_3d_engineering',2011,#183);
#183=APPLICATION_CONTEXT('managed model based 3d engineering');
ENDSEC;
END-ISO-10303-21;
